<svg xmlns="http://www.w3.org/2000/svg" viewBox="0 0 34.395836 34.395836" class="lc-logo">
  <circle style="
    fill: none;
    stroke: var(--stroke);
    stroke-width: 0.529167"
      cx="17.197916"
      cy="17.197916"
      r="16.933332" />
  <path style="
    fill: var(--fill);
    stroke: var(--stroke);
    stroke-width: 0.529167"
      d="M 19.958988,4.2364339 C 17.470743,4.184085 14.83948,5.4239287 13.578115,7.6103018 13.325837,9.548367 12.900852,6.6905756 12.068193,6.3199419 10.902521,5.1059168 8.964152,5.0295986 7.4383057,5.4761515 5.8162373,6.0848374 4.9406486,7.7046238 3.9664164,9.0373069 3.7008376,9.7123196 1.9828586,12.343586 3.4340749,10.7857 4.7717214,9.5875369 6.0780429,7.9998606 8.0437532,8.0034702 c 2.5701708,-0.28225 4.7779958,2.0050348 5.0200328,4.4668378 0.384351,2.553133 -1.040452,4.884104 -1.971442,7.158985 -0.632073,1.522738 -1.7177574,2.870665 -2.1920376,4.441892 -0.1519536,0.861173 -0.3039071,1.722346 -0.4558606,2.583519 2.0855662,-3.814426 4.1280702,-7.775221 4.6897892,-12.145774 0.301352,-1.678816 0.593225,-3.434528 0.506276,-5.1012359 2.325319,-2.357063 6.474229,-3.0594721 9.200472,-1.0231932 1.26853,1.4186134 0.606237,3.6212961 0.32706,5.3017411 -0.689919,2.344555 -1.689561,4.583682 -2.374477,6.930071 -1.67588,1.310615 -3.114975,3.138636 -5.228418,3.735445 -1.191321,-0.16588 -1.393879,-1.378978 -1.609355,0.269528 -0.112628,0.678002 -0.505946,1.374609 -0.446023,2.041173 1.185426,1.718965 3.118283,-0.311061 4.25856,-1.162211 0.724615,-0.424651 2.729351,-2.956781 1.955313,-0.903832 -0.833018,1.928229 0.465411,4.218633 2.66564,4.040086 2.314126,0.375158 4.656525,-0.96017 6.003233,-2.782215 0.774745,-1.230363 1.282771,-4.174749 1.450042,-4.602274 -0.369942,1.212735 0.449678,-1.359163 0.128818,-1.864324 0.02742,-1.988797 -2.389781,-2.894155 -3.974005,-2.015458 -1.742427,0.808925 -3.442518,1.761258 -4.913987,3.008446 1.357182,-3.69303 2.542406,-7.479832 3.195671,-11.3646811 C 24.530006,7.4058 24.463208,5.2096044 22.524457,4.7218974 21.710959,4.3913169 20.835386,4.2391798 19.958988,4.2364339 Z m 6.71587,15.8026531 c 1.815409,-0.195722 3.453903,2.396728 1.870249,3.654722 -1.57033,1.513355 -3.827629,2.516846 -6.022431,1.873083 -1.423154,0.03283 -3.20239,-2.220975 -1.332158,-2.943825 1.67677,-1.094269 3.440998,-2.386611 5.48434,-2.58398 z" />
  <path style="
    fill: var(--fill);
    fill-opacity: var(--opac);
    stroke: var(--stroke);
    stroke-opacity: var(--opac);
    stroke-width: 0.460829"
      d="M 60.023041,127.7353 C 37.839661,125.67463 18.874667,112.96862 8.9956509,93.548387 5.8424313,87.34977 3.8070193,81.000212 2.7174071,73.963134 2.1962488,70.59732 2.1329483,60.014032 2.6147348,56.797235 4.7707871,42.401684 10.749202,30.348166 20.614831,20.505922 30.319548,10.82421 42.265118,4.8428541 56.105991,2.7348753 60.508788,2.0643249 68.783097,2.0048876 73.144611,2.6124808 98.128297,6.0929046 118.24824,23.341532 125.35261,47.36988 c 3.03469,10.263892 3.31628,21.60633 0.80036,32.238415 -4.7097,19.902829 -19.06237,36.397675 -38.249744,43.958605 -4.46827,1.76076 -9.1143,2.97582 -14.36844,3.75773 -2.259496,0.33626 -11.34133,0.61229 -13.511745,0.41067 z m 31.912443,-18.66378 c 3.349571,-0.62921 7.534903,-2.59278 10.672336,-5.00698 2.08082,-1.60116 5.37315,-5.189266 6.21731,-6.775879 1.80956,-3.401069 5.33852,-16.513977 5.71931,-21.251795 0.16721,-2.080375 -0.37867,-5.560942 -1.09533,-6.983866 -2.19377,-4.355751 -7.96723,-6.701475 -13.16315,-5.348111 -2.569472,0.669263 -11.656356,5.489404 -16.157207,8.570595 -0.998769,0.68374 -1.843513,1.213562 -1.877209,1.177387 -0.03369,-0.03618 0.607882,-2.03582 1.425726,-4.443654 3.751527,-11.044968 6.339087,-20.387019 8.296638,-29.953917 1.048385,-5.123648 1.084859,-5.437194 1.099011,-9.447005 0.01438,-4.073019 0.0018,-4.183295 -0.699834,-6.143498 -1.36361,-3.809545 -3.252014,-5.521575 -7.683387,-6.965774 -3.446375,-1.123184 -5.955516,-1.522064 -9.574491,-1.522064 -7.564465,0 -14.163884,2.393551 -19.673246,7.135313 -1.753092,1.508841 -4.20288,4.406571 -4.820714,5.70218 -0.198537,0.416338 -0.419537,0.756587 -0.491111,0.756113 -0.07158,-4.61e-4 -0.321648,-0.466553 -0.555714,-1.035729 -0.808533,-1.966078 -2.115904,-3.677601 -3.914291,-5.124329 -3.42961,-2.758981 -7.073041,-3.88544 -11.904371,-3.680541 -5.618748,0.238293 -8.441585,1.445002 -12.22101,5.224252 -3.710378,3.710204 -7.444355,9.248425 -11.087837,16.445439 -0.8202856,1.62032 -0.812736,2.656921 0.02237,3.070961 0.409212,0.202884 0.687043,0.21114 1.02466,0.03045 0.254769,-0.136347 2.231381,-1.891894 4.392472,-3.901214 2.161091,-2.00932 4.551376,-4.124825 5.311745,-4.701122 1.842548,-1.396498 5.206613,-3.014548 6.897156,-3.317401 1.941791,-0.347864 5.52489,-0.297242 7.218113,0.101977 3.632268,0.856394 7.381574,3.564242 9.736413,7.031896 2.143255,3.156086 3.164949,6.366662 3.371154,10.593549 0.254993,5.226924 -0.823806,9.105336 -5.543869,19.930875 -1.858477,4.262445 -3.861942,8.392422 -5.532864,11.40553 -4.233719,7.634503 -4.435534,8.164095 -5.564744,14.602581 -0.447297,2.550378 -0.863104,4.807561 -0.924014,5.015961 -0.08237,0.2818 0.155132,0.4695 0.926774,0.73242 l 1.037524,0.35352 1.479557,-2.690949 C 42.429839,83.87137 47.296558,72.058285 49.531169,61.686204 c 0.591166,-2.743931 2.197087,-12.402672 2.670912,-16.064087 0.1558,-1.203917 0.346189,-3.898993 0.423086,-5.989058 l 0.139813,-3.800117 1.888217,-1.512618 c 3.389188,-2.715023 8.176214,-4.850938 12.6015,-5.622643 2.623875,-0.457564 6.937412,-0.45656 9.355702,0.0021 4.362321,0.827518 8.530357,2.920184 9.762385,4.901447 1.958691,3.149827 2.135,6.819643 0.703353,14.639908 -0.713238,3.896002 -1.315869,5.820889 -5.17795,16.539085 -1.627755,4.517417 -3.241855,9.15653 -3.586882,10.309141 -0.580657,1.939758 -0.714302,2.168548 -1.796502,3.075493 -0.643049,0.538908 -2.206044,1.91606 -3.473325,3.060334 -5.722394,5.166958 -7.938357,6.817438 -11.368463,8.46738 -2.852113,1.371917 -3.363473,1.368703 -5.727938,-0.036 -1.731132,-1.028445 -2.239657,-1.130396 -2.995989,-0.60064 -0.557901,0.390769 -0.853686,1.188101 -1.221935,3.293891 -0.139585,0.798208 -0.557007,2.436325 -0.927602,3.640261 -0.370594,1.203935 -0.741336,2.848092 -0.823871,3.653679 l -0.150064,1.4647 1.074806,1.14906 c 2.754784,2.94508 6.194434,2.80659 11.003954,-0.44306 2.386834,-1.61271 6.274353,-4.737179 9.038938,-7.264755 1.407445,-1.286786 2.577244,-2.322682 2.599553,-2.301988 0.0223,0.02069 -0.15767,0.624804 -0.399956,1.342474 -2.176574,6.447239 1.421827,13.717819 7.62132,15.398889 1.28306,0.34792 5.825118,0.65193 7.830242,0.52409 0.823733,-0.0525 2.327189,-0.2513 3.341014,-0.44174 z"
        transform="scale(0.26458333)" />
  <path style="
    fill: var(--fill);
    fill-opacity: var(--opac);
    stroke: var(--stroke);
    stroke-opacity: var(--opac);
    stroke-width: 0.460829"
      d="m 86.40553,95.830964 c -3.404608,-0.595146 -4.280281,-0.957801 -5.872782,-2.432175 -1.537045,-1.423033 -2.306942,-2.802859 -2.306942,-4.134554 0,-1.183207 0.421243,-1.752916 1.902443,-2.572954 0.664486,-0.36788 2.815299,-1.71192 4.779585,-2.986755 6.208317,-4.029241 10.346014,-5.92343 14.508271,-6.641718 2.645575,-0.45655 4.071115,-0.212018 5.869575,1.006841 2.32155,1.57337 3.60156,3.66796 3.76436,6.15994 0.13704,2.097702 -0.30217,2.995619 -2.41485,4.936856 -4.14187,3.805755 -9.018247,6.255273 -13.737116,6.90048 -2.40436,0.328746 -3.487196,0.289393 -6.492544,-0.235961 z"
        transform="scale(0.26458333)" />
  <path style="
    fill: var(--fill);
    stroke: var(--stroke);
    stroke-width: 0.00829669"
      d="m 81.84258,74.019954 c 0.0016,-0.004 0.04383,-0.121976 0.09393,-0.262183 0.05009,-0.140208 0.09161,-0.255456 0.09226,-0.256107 6.51e-4,-6.51e-4 0.01259,0.02353 0.02653,0.05373 l 0.02535,0.05491 0.04074,0.02601 c 0.02241,0.0143 0.04727,0.02946 0.05526,0.03368 0.01937,0.01023 0.0777,0.01828 0.107083,0.01478 0.01565,-0.0019 0.02219,-0.0014 0.01944,0.0013 -0.0023,0.0023 -0.03402,0.02612 -0.07052,0.05299 -0.03651,0.02688 -0.13848,0.102704 -0.226611,0.168503 -0.08813,0.0658 -0.161601,0.119634 -0.163266,0.119634 -0.0017,0 -0.0017,-0.0033 -1.82e-4,-0.0073 z"
        transform="scale(0.26458333)" />
  <path style="
    fill: var(--fill);
    stroke: var(--stroke);
    stroke-width: 0.0078125"
      d="m 50.178615,29.135819 c -0.06895,-0.148342 -0.164943,-0.357957 -0.164943,-0.360166 0,-9.18e-4 0.01011,0.0024 0.02246,0.0074 0.08117,0.03294 0.184563,0.01836 0.257919,-0.03636 0.007,-0.0053 0.01373,-0.0086 0.01487,-0.0075 0.0041,0.0041 -0.06855,0.508 -0.07406,0.513514 -7.07e-4,7.07e-4 -0.02602,-0.05192 -0.05624,-0.116954 z"
        transform="scale(0.26458333)" />
  <path style="
    fill: var(--fill);
    stroke: var(--stroke);
    stroke-width: 0.0078125"
      d="m 73.76061,92.168711 c -0.0045,-0.01281 -0.0515,-0.08256 -0.06032,-0.08945 -0.0027,-0.0021 -0.04453,-0.01491 -0.09287,-0.02837 -0.04834,-0.01346 -0.08996,-0.02559 -0.09249,-0.02694 -0.0027,-0.0014 0.04909,-0.04894 0.125176,-0.114808 0.135441,-0.117248 0.300632,-0.256736 0.30222,-0.255196 0.0024,0.0024 -0.14876,0.452841 -0.17374,0.51766 l -0.0037,0.0095 z"
        transform="scale(0.26458333)" />
<style>
:root {
   --stroke: hsl(25 100% 65% / 1);
   --fill: var(--stroke);
   --opac: 0.20;
}
</style>
</svg>
